<svg xmlns="http://www.w3.org/2000/svg" viewBox="0 0 837.0 110"><g transform="translate(0,13) scale(1.75)"><rect x="4" y="10" width="40" height="28" rx="7" fill="none" stroke="#F1EDE4" stroke-width="3"></rect><rect x="10" y="16" width="13" height="16" rx="3" fill="#2FA075"></rect></g><g transform="translate(114.0,88)"><g><path d="M8.1 0L8.1 -68.7L52.4 -68.7Q59.4 -68.7 64.4 -65.85Q69.4 -63 72.05 -57.9Q74.7 -52.8 74.7 -45.9Q74.7 -39.1 71.95 -33.95Q69.2 -28.8 64.1 -25.9Q59 -23 51.9 -23L25.8 -23L25.8 0ZM25.8 -36.7L47.9 -36.7Q52.5 -36.7 54.95 -39.1Q57.4 -41.5 57.4 -45.8Q57.4 -48.8 56.3 -50.85Q55.2 -52.9 53.15 -53.95Q51.1 -55 47.9 -55L25.8 -55Z" fill="#F1EDE4"></path><path d="M97.51 1.2Q93.71 1.2 90.11 0.5Q86.51 -0.2 83.61 -1.8Q80.71 -3.4 79.06 -6.45Q77.41 -9.5 77.41 -14Q77.41 -19.9 80.36 -23.55Q83.31 -27.2 88.66 -29.05Q94.01 -30.9 101.36 -31.55Q108.71 -32.2 117.81 -32.2L117.81 -34.9Q117.81 -37.6 116.61 -39.35Q115.41 -41.1 112.91 -41.95Q110.41 -42.8 106.61 -42.8Q103.21 -42.8 100.76 -42.2Q98.31 -41.6 96.86 -40.45Q95.41 -39.3 95.41 -37.6L95.41 -36.6L79.51 -36.6Q79.41 -37.1 79.36 -37.45Q79.31 -37.8 79.31 -38.4Q79.31 -43.1 82.61 -46.55Q85.91 -50 92.06 -51.95Q98.21 -53.9 107.01 -53.9Q115.51 -53.9 121.41 -52.1Q127.31 -50.3 130.56 -46.5Q133.81 -42.7 133.81 -36.6L133.81 -14.2Q133.81 -12.4 134.66 -11.4Q135.51 -10.4 137.11 -10.4L141.31 -10.4L141.31 -0.6Q140.11 0 137.56 0.55Q135.01 1.1 131.81 1.1Q127.81 1.1 125.26 0.2Q122.71 -0.7 121.26 -2.35Q119.81 -4 119.11 -6.2L118.41 -6.2Q116.11 -3.9 113.01 -2.25Q109.91 -0.6 106.06 0.3Q102.21 1.2 97.51 1.2ZM102.51 -9.9Q105.11 -9.9 107.76 -10.55Q110.41 -11.2 112.66 -12.55Q114.91 -13.9 116.36 -15.75Q117.81 -17.6 117.81 -20.1L117.81 -23.1Q109.91 -23.1 104.51 -22.35Q99.11 -21.6 96.31 -19.9Q93.51 -18.2 93.51 -15.2Q93.51 -13.3 94.76 -12.1Q96.01 -10.9 98.06 -10.4Q100.11 -9.9 102.51 -9.9Z" fill="#F1EDE4"></path><path d="M168.15 1.2Q160.75 1.2 155.3 -1.75Q149.85 -4.7 146.8 -10.85Q143.75 -17 143.75 -26.4Q143.75 -35.8 146.8 -41.95Q149.85 -48.1 155.2 -51Q160.55 -53.9 167.65 -53.9Q171.05 -53.9 174.3 -53.15Q177.55 -52.4 180.3 -50.8Q183.05 -49.2 184.85 -46.7L185.55 -46.7L185.55 -72.4L201.65 -72.4L201.65 0L188.55 0L187.25 -7.7L186.45 -7.7Q183.25 -2.9 178.55 -0.85Q173.85 1.2 168.15 1.2ZM172.85 -11.4Q177.15 -11.4 179.95 -13.1Q182.75 -14.8 184.25 -18Q185.75 -21.2 185.75 -25.6L185.75 -27.1Q185.75 -30.2 184.9 -32.85Q184.05 -35.5 182.45 -37.4Q180.85 -39.3 178.4 -40.3Q175.95 -41.3 172.75 -41.3Q168.55 -41.3 165.65 -39.65Q162.75 -38 161.4 -34.95Q160.05 -31.9 160.05 -27.5L160.05 -25.1Q160.05 -20.7 161.45 -17.65Q162.85 -14.6 165.65 -13Q168.45 -11.4 172.85 -11.4Z" fill="#F1EDE4"></path><path d="M241.21 1.2Q231.51 1.2 224.56 -1.75Q217.61 -4.7 213.91 -10.8Q210.21 -16.9 210.21 -26.3Q210.21 -35.8 213.91 -41.85Q217.61 -47.9 224.36 -50.9Q231.11 -53.9 240.61 -53.9Q250.11 -53.9 256.76 -51Q263.41 -48.1 266.81 -42.1Q270.21 -36.1 270.21 -27L270.21 -23L226.81 -23Q226.91 -18.6 228.51 -15.7Q230.11 -12.8 233.36 -11.35Q236.61 -9.9 241.31 -9.9Q243.71 -9.9 245.96 -10.45Q248.21 -11 249.96 -12.1Q251.71 -13.2 252.86 -14.85Q254.01 -16.5 254.01 -18.6L270.01 -18.6Q270.01 -13.9 268.01 -10.2Q266.01 -6.5 262.21 -4Q258.41 -1.5 253.06 -0.15Q247.71 1.2 241.21 1.2ZM226.91 -32.2L253.31 -32.2Q253.31 -34.8 252.46 -36.8Q251.61 -38.8 249.96 -40.15Q248.31 -41.5 246.01 -42.15Q243.71 -42.8 241.01 -42.8Q236.71 -42.8 233.76 -41.55Q230.81 -40.3 229.06 -38Q227.31 -35.7 226.91 -32.2Z" fill="#F1EDE4"></path><path d="M278.82 0L278.82 -72.4L294.92 -72.4L294.92 0Z" fill="#F1EDE4"></path><path d="M342.86 1.2Q330.36 1.2 321.81 -2.7Q313.26 -6.6 308.91 -14.5Q304.56 -22.4 304.56 -34.3Q304.56 -51.8 314.46 -60.85Q324.36 -69.9 342.86 -69.9Q353.26 -69.9 361.21 -66.65Q369.16 -63.4 373.71 -57.15Q378.26 -50.9 378.26 -41.8L360.96 -41.8Q360.96 -46.4 358.71 -49.55Q356.46 -52.7 352.41 -54.45Q348.36 -56.2 342.76 -56.2Q336.06 -56.2 331.61 -53.75Q327.16 -51.3 324.86 -46.8Q322.56 -42.3 322.56 -35.9L322.56 -32.8Q322.56 -26.4 324.81 -21.9Q327.06 -17.4 331.56 -14.95Q336.06 -12.5 342.66 -12.5Q348.46 -12.5 352.71 -14.1Q356.96 -15.7 359.26 -18.85Q361.56 -22 361.56 -26.6L378.36 -26.6Q378.36 -17.8 373.96 -11.55Q369.56 -5.3 361.56 -2.05Q353.56 1.2 342.86 1.2Z" fill="#F1EDE4"></path><path d="M387.76 0L387.76 -72.4L403.86 -72.4L403.86 0Z" fill="#F1EDE4"></path><path d="M434.59 1.2Q424.89 1.2 419.69 -3.75Q414.49 -8.7 414.49 -19.1L414.49 -52.7L430.59 -52.7L430.59 -21.4Q430.59 -18.8 431.24 -16.95Q431.89 -15.1 433.19 -13.85Q434.49 -12.6 436.39 -12Q438.29 -11.4 440.69 -11.4Q444.29 -11.4 447.14 -12.95Q449.99 -14.5 451.64 -17.3Q453.29 -20.1 453.29 -23.4L453.29 -52.7L469.39 -52.7L469.39 0L456.29 0L455.29 -8.1L454.49 -8.1Q452.19 -4.9 449.04 -2.85Q445.89 -0.8 442.19 0.2Q438.49 1.2 434.59 1.2Z" fill="#F1EDE4"></path><path d="M513.95 1.2Q508.35 1.2 503.55 -0.85Q498.75 -2.9 495.55 -7.7L494.85 -7.7L493.65 0L480.45 0L480.45 -72.4L496.55 -72.4L496.55 -46.7L497.25 -46.7Q499.15 -49.2 501.8 -50.8Q504.45 -52.4 507.7 -53.15Q510.95 -53.9 514.45 -53.9Q521.45 -53.9 526.85 -51Q532.25 -48.1 535.25 -41.95Q538.25 -35.8 538.25 -26.4Q538.25 -17 535.25 -10.85Q532.25 -4.7 526.75 -1.75Q521.25 1.2 513.95 1.2ZM509.25 -11.4Q513.65 -11.4 516.45 -13Q519.25 -14.6 520.6 -17.65Q521.95 -20.7 521.95 -25.1L521.95 -27.5Q521.95 -31.9 520.6 -34.95Q519.25 -38 516.45 -39.65Q513.65 -41.3 509.25 -41.3Q506.05 -41.3 503.65 -40.3Q501.25 -39.3 499.6 -37.4Q497.95 -35.5 497.2 -32.85Q496.45 -30.2 496.45 -27.1L496.45 -25.6Q496.45 -21.2 497.8 -18Q499.15 -14.8 502.05 -13.1Q504.95 -11.4 509.25 -11.4Z" fill="#F1EDE4"></path><rect x="564.4" y="-71.4" width="158.5" height="74.1" rx="16" fill="#2FA075"></rect><g transform="translate(580.4,-8.2)"><path d="M34.35 0.91Q24.93 0.91 18.09 -2.17Q11.25 -5.24 7.6 -11.29Q3.95 -17.33 3.95 -26.07Q3.95 -34.96 7.6 -41Q11.25 -47.04 18.09 -50.08Q24.93 -53.12 34.35 -53.12Q43.85 -53.12 50.62 -50.08Q57.38 -47.04 61.07 -41Q64.75 -34.96 64.75 -26.07Q64.75 -17.33 61.07 -11.29Q57.38 -5.24 50.62 -2.17Q43.85 0.91 34.35 0.91ZM34.43 -9.5Q38.15 -9.5 41.23 -10.53Q44.31 -11.55 46.51 -13.57Q48.72 -15.58 49.89 -18.39Q51.07 -21.2 51.07 -24.93L51.07 -27.28Q51.07 -30.93 49.89 -33.82Q48.72 -36.71 46.51 -38.72Q44.31 -40.74 41.23 -41.72Q38.15 -42.71 34.43 -42.71Q30.48 -42.71 27.4 -41.72Q24.32 -40.74 22.15 -38.72Q19.99 -36.71 18.85 -33.82Q17.71 -30.93 17.71 -27.28L17.71 -24.93Q17.71 -21.2 18.85 -18.39Q19.99 -15.58 22.15 -13.57Q24.32 -11.55 27.4 -10.53Q30.48 -9.5 34.43 -9.5Z" fill="#0B241A"></path><path d="M98.01 0.91Q92.61 0.91 87.82 0.11Q83.03 -0.68 79.39 -2.66Q75.74 -4.64 73.65 -7.9Q71.56 -11.17 71.56 -16.04Q71.56 -16.26 71.6 -16.61Q71.63 -16.95 71.63 -17.1L84.78 -17.1Q84.71 -16.87 84.67 -16.53Q84.63 -16.19 84.63 -15.81Q84.63 -13.45 86.19 -12.01Q87.75 -10.56 90.63 -9.84Q93.52 -9.12 97.4 -9.12Q99.3 -9.12 101.12 -9.35Q102.95 -9.58 104.43 -9.92Q105.91 -10.26 107.05 -10.87Q108.19 -11.48 108.84 -12.31Q109.48 -13.15 109.48 -14.36Q109.48 -16.19 107.96 -17.33Q106.44 -18.47 103.82 -19.19Q101.2 -19.91 97.93 -20.52Q94.66 -21.13 91.13 -21.81Q87.59 -22.5 84.33 -23.64Q81.06 -24.78 78.44 -26.52Q75.81 -28.27 74.29 -30.97Q72.77 -33.67 72.77 -37.54Q72.77 -41.57 74.6 -44.5Q76.42 -47.42 79.77 -49.32Q83.11 -51.22 87.63 -52.17Q92.15 -53.12 97.55 -53.12Q102.87 -53.12 107.2 -52.17Q111.53 -51.22 114.76 -49.32Q117.99 -47.42 119.78 -44.5Q121.57 -41.57 121.64 -37.7L121.64 -36.63L108.65 -36.63L108.65 -37.32Q108.65 -38.99 107.32 -40.32Q105.99 -41.65 103.63 -42.48Q101.27 -43.32 97.85 -43.32Q94.05 -43.32 91.51 -42.71Q88.96 -42.1 87.71 -41.04Q86.45 -39.98 86.45 -38.61Q86.45 -36.94 87.97 -35.91Q89.49 -34.88 92.15 -34.2Q94.81 -33.52 98.08 -32.91Q101.35 -32.3 104.81 -31.62Q108.27 -30.93 111.53 -29.83Q114.8 -28.73 117.42 -26.98Q120.05 -25.23 121.6 -22.61Q123.16 -19.99 123.16 -16.19Q123.16 -10.03 119.93 -6.27Q116.7 -2.51 111.08 -0.8Q105.45 0.91 98.01 0.91Z" fill="#0B241A"></path></g></g></g></svg>